<svg xmlns="http://www.w3.org/2000/svg" viewBox="0 0 3456 3456"><g transform="scale(3.2)"><circle cx="540" cy="540" r="503.911" style="display:inline;fill:none;fill-opacity:1;stroke:currentColor;stroke-width:72.1789;stroke-linejoin:round;stroke-dasharray:none;stroke-opacity:1;paint-order:stroke fill markers"/><path d="M775.303 996.23c-70.92-97.897-127.704-213.36-213.827-302.563-80.527-83.407-293.025-255.905-389.972-321.322 57.87 29.165 292.62 175.115 408.316 295.224 90.42 93.869 137.496 235.619 195.483 328.662" style="display:inline;fill:currentColor;fill-opacity:1;stroke-width:380.292;stroke-dasharray:none"/><path d="M405.376 685.5c53.038 21.23 51.63 11.979 119.265 17.19 60.525 4.824 119.766 23.832 94.875 77.408-23.357 50.272-197.147-4.174-214.038-94.76z" style="display:inline;fill:currentColor;fill-opacity:1;stroke-width:13.4331"/><path d="M542.137 417.738c53.267 26.485 147.251 19.677 171.262 57.557 6.736 10.626 16.085 23.46 7.587 43.129-27.961 64.713-135.226 13.651-177.523-98.239z" style="display:inline;fill:currentColor;fill-opacity:1;stroke-width:10.855"/><path d="M645.903 676.434c27.917 51.383 36.355 44.018 32.588 100.234-3.558 53.112 19.092 128.99 64.426 107.985 66.576-30.844 7.177-161.037-96.98-208.228z" style="display:inline;fill:currentColor;fill-opacity:1;stroke-width:11.2341"/><path d="M435.714 432.907c18.384 21.749 53.445 68.738 51.626 117.122-2.286 60.791 51.197 101.001 99.167 73.728 35.62-20.251 25.016-61.288-13.137-102.826-35.786-38.96-90.08-77.442-137.673-88.011z" style="display:inline;fill:currentColor;fill-opacity:1;stroke-width:12.3575"/><path d="M365.008 457.899c74.395-50.998-75.118-160.622-166.225-164.505 50.63 50.048 76.716 225.863 166.225 164.505" style="display:inline;fill:currentColor;fill-opacity:1;stroke-width:11.0129"/><path d="M430.486 570.326c-3.411 78.197-170.752 45.484-239.939-44.832 70.467 11.015 105.644-16.809 158.038-11.297 33.412 3.261 83.668 15.625 81.9 56.13" style="display:inline;fill:currentColor;fill-opacity:1;stroke-width:10.2625"/><path d="M685.394 592.412c37.33 40.309 50.595 23.018 96.373 54.438 25.248 17.277 66.706 69.341 27.045 92.46-60.333 35.17-100.973-52.785-122.691-138.146z" style="display:inline;fill:currentColor;fill-opacity:1;stroke-width:9.6665"/><path d="M547.7 190.075c30.892 48.655 34.493 42.866 46.653 102.057 17.239 83.916 54.104 101 80.555 74.716 53.051-52.717-40.74-141.066-127.298-176.727z" style="display:inline;fill:currentColor;fill-opacity:1;stroke-width:9.91359"/><path d="M766.682 397.907c20.92 44.512 14.298 39.7 8.265 85.919-5.746 44.028-2.83 84.472 11.978 100.17 18.184 19.28 158.045-56.806-20.253-186.085z" style="display:inline;fill:currentColor;fill-opacity:1;stroke-width:9.79658"/><path d="M855.982 944.044c20.17-104.939-53.833-321.08-122.225-428.052-60.195-94.151-234.672-275.56-301.006-335.775 41.411 38.567 233.656 181.52 321.186 315.912 73.648 113.079 122.634 347.516 102.045 447.915" style="display:inline;fill:currentColor;fill-opacity:1;stroke-width:10.9242"/><path d="M346.35 182.696c-.08-.151 125.41 212.651 186.337 123.975 49.8-72.481-164.866-82.961-186.338-123.975" style="display:inline;fill:currentColor;fill-opacity:1;stroke:none;stroke-width:44.6958;stroke-opacity:1"/></g></svg>