<?xml version="1.0" encoding="UTF-8" standalone="no"?>
<!-- Created with Inkscape (http://www.inkscape.org/) -->

<svg
   width="36in"
   height="36in"
   viewBox="0 0 3456 3456"
   version="1.1"
   id="svg1"
   sodipodi:docname="LogoFinal.svg"
   inkscape:version="1.3.2 (091e20e, 2023-11-25)"
   inkscape:export-filename="LogoFinal3FEET.png"
   inkscape:export-xdpi="96"
   inkscape:export-ydpi="96"
   xmlns:inkscape="http://www.inkscape.org/namespaces/inkscape"
   xmlns:sodipodi="http://sodipodi.sourceforge.net/DTD/sodipodi-0.dtd"
   xmlns="http://www.w3.org/2000/svg"
   xmlns:svg="http://www.w3.org/2000/svg">
  <sodipodi:namedview
     id="namedview1"
     pagecolor="#ffffff"
     bordercolor="#000000"
     borderopacity="0.25"
     inkscape:showpageshadow="2"
     inkscape:pageopacity="0.0"
     inkscape:pagecheckerboard="0"
     inkscape:deskcolor="#d1d1d1"
     inkscape:zoom="0.041430952"
     inkscape:cx="1279.2369"
     inkscape:cy="1472.3292"
     inkscape:window-width="1312"
     inkscape:window-height="449"
     inkscape:window-x="0"
     inkscape:window-y="25"
     inkscape:window-maximized="0"
     inkscape:current-layer="svg1"
     inkscape:document-units="in" />
  <defs
     id="defs1" />
  <g
     id="layer1"
     transform="matrix(3.2,0,0,3.2,8.392334e-6,8.392334e-6)">
    <circle
       style="display:inline;fill:#204e41;fill-opacity:1;stroke:#d4af37;stroke-width:72.1789;stroke-linejoin:round;stroke-dasharray:none;stroke-opacity:1;paint-order:stroke fill markers"
       id="path1-7-4"
       cx="540"
       cy="540"
       r="503.91055" />
    <path
       style="display:inline;fill:#d4af37;fill-opacity:1;stroke-width:380.292;stroke-dasharray:none"
       d="M 775.30326,996.23053 C 704.38227,898.33258 647.59904,782.8708 561.47565,693.66716 480.94853,610.26021 268.45057,437.76212 171.50448,372.34537 c 57.87017,29.16488 292.61995,175.11477 408.31559,295.22388 90.41965,93.86878 137.49581,235.61853 195.48319,328.66128 z"
       id="path2-7-3-7-4-9-1-4-0-8-2-7-2-2-8" />
    <path
       style="display:inline;fill:#d4af37;fill-opacity:1;stroke-width:13.4331"
       d="m 405.376,685.49905 c 53.03798,21.23178 51.62931,11.97979 119.2654,17.1908 60.52484,4.82435 119.76519,23.83234 94.87445,77.40779 -23.35684,50.2727 -197.14661,-4.17353 -214.0375,-94.75943 z"
       id="path1-3-5-2-3-0-9-8-5-9-0-4-0-3-4-3-2-8" />
    <path
       style="display:inline;fill:#d4af37;fill-opacity:1;stroke-width:10.855"
       d="m 542.13679,417.73779 c 53.26693,26.48559 147.2513,19.67738 171.26224,57.55698 6.73596,10.62665 16.08525,23.46019 7.5867,43.12923 -27.96088,64.7125 -135.22584,13.65138 -177.52227,-98.23854 z"
       id="path1-3-5-2-3-0-9-8-5-9-0-4-8-4-5-23-7-3-71-81" />
    <path
       style="display:inline;fill:#d4af37;fill-opacity:1;stroke-width:11.2341"
       d="m 645.90283,676.43398 c 27.91748,51.38261 36.355,44.01837 32.58832,100.23371 -3.55841,53.11273 19.09177,128.98954 64.42576,107.98523 66.57594,-30.84427 7.17691,-161.03661 -96.97964,-208.22829 z"
       id="path1-3-9-1-8-7-8-2-8-7-1-6-1-2-4-3-3-0-4" />
    <path
       style="display:inline;fill:#d4af37;fill-opacity:1;stroke-width:12.3575"
       d="m 435.71352,432.90663 c 18.38469,21.74898 53.44526,68.73796 51.6265,117.12275 -2.28608,60.79108 51.19725,101.00094 99.16672,73.72772 35.62032,-20.25122 25.01665,-61.28813 -13.13642,-102.82635 -35.78603,-38.95991 -90.07986,-77.4421 -137.67294,-88.01081 z"
       id="path1-3-9-5-9-4-5-7-4-5-3-4-95-6-5-5-6-8" />
    <path
       style="display:inline;fill:#d4af37;fill-opacity:1;stroke-width:11.0129"
       d="m 365.00784,457.89871 c 74.39493,-50.9981 -75.11761,-160.62164 -166.22517,-164.5043 50.631,50.04808 76.7165,225.86293 166.22517,164.5043 z"
       id="path1-3-9-5-9-4-5-7-4-5-3-4-9-0-80-2-1-3-5" />
    <path
       style="display:inline;fill:#d4af37;fill-opacity:1;stroke-width:10.2625"
       d="m 430.48589,570.32626 c -3.41132,78.1972 -170.75231,45.48352 -239.93856,-44.83229 70.46643,11.01544 105.64323,-16.80889 158.03772,-11.29742 33.41184,3.26152 83.66783,15.62539 81.90084,56.12971 z"
       id="path1-3-9-5-9-4-5-7-4-5-3-4-9-3-3-6-4-1-0-2" />
    <path
       style="display:inline;fill:#d4af37;fill-opacity:1;stroke-width:9.6665"
       d="m 685.39434,592.41204 c 37.32936,40.30888 50.59463,23.0177 96.3723,54.43758 25.24857,17.27728 66.70586,69.34152 27.04563,92.45994 -60.33339,35.17092 -100.9736,-52.7844 -122.6915,-138.1457 z"
       id="path1-4-7-1-24-40-0-5-0-6-1-2-8-1-5-1-58-6-4-4-66" />
    <path
       style="display:inline;fill:#d4af37;fill-opacity:1;stroke-width:9.91359"
       d="m 547.70041,190.07532 c 30.89185,48.65489 34.49258,42.86583 46.65247,102.05684 17.23895,83.916 54.1037,100.99947 80.55495,74.71535 53.0515,-52.71621 -40.74021,-141.06573 -127.29798,-176.7264 z"
       id="path1-3-5-2-3-0-9-8-4-3-0-7-7-4-432-3-0-4-8" />
    <path
       style="display:inline;fill:#d4af37;fill-opacity:1;stroke-width:9.79658"
       d="m 766.68214,397.90688 c 20.92006,44.51243 14.29743,39.69943 8.26525,85.91876 -5.74618,44.02795 -2.82948,84.47235 11.97767,100.17114 18.18395,19.27894 158.04446,-56.80641 -20.25273,-186.08567 z"
       id="path1-3-9-9-3-3-9-7-1-1-1-6-0-4-1-1-6-3-1" />
    <path
       style="display:inline;fill:#d4af37;fill-opacity:1;stroke-width:10.9242"
       d="M 855.98176,944.04418 C 876.15124,839.10521 802.14883,622.96391 733.7571,515.99203 673.56174,421.84073 499.08505,240.43139 432.75127,180.21743 c 41.411,38.56672 233.65576,181.51998 321.1855,315.91152 73.64865,113.0788 122.63406,347.51642 102.04499,447.91523 z"
       id="path2-7-3-7-8-6-1-4-9-2-7-6-7-0-1" />
    <path
       style="display:inline;fill:#d4af37;fill-opacity:1;stroke:none;stroke-width:44.6958;stroke-opacity:1"
       d="M 346.34934,182.69596 C 346.26974,182.545 471.75906,395.34715 532.68671,306.67092 582.48703,234.18972 367.82127,223.70963 346.34934,182.69596 Z"
       id="path4-9-3-1-1-9-7" />
  </g>
</svg>
